<?xml version="1.0" encoding="utf-8"?>
<!-- Generator: Adobe Illustrator 19.2.0, SVG Export Plug-In . SVG Version: 6.00 Build 0)  -->
<svg version="1.1" id="Layer_2" xmlns="http://www.w3.org/2000/svg" xmlns:xlink="http://www.w3.org/1999/xlink" x="0px" y="0px"
	 viewBox="0 0 682.8 106.2" style="enable-background:new 0 0 682.8 106.2;" xml:space="preserve">
<style type="text/css">
	.st0{fill:#FFFFFF;}
</style>
<g id="_x3C_Groep2_x3E_">
	<path class="st0" d="M24,77.9h23.7l10.4,8.7l2.1,1.8v11.2L57,96.8L45.1,86.6H19.7c-2.6,0-4.7-2.1-4.7-4.7V36.7
		c0.1-1.4,0.8-3.1,2.8-4.7C19,31.2,57.1,3.4,57.1,3.4c1.5-1.1,3.4-1.1,4.9-0.1c0,0,9.6,6.4,20,13.4l-7.5,5.6l-14.8-10L33.4,31.6
		l-2.3,1.7l-7,5.2V77.9z"/>
	<path class="st0" d="M154.9,33.3c-0.2-0.2-0.7-0.5-1-0.7c-10.7-7.4-43.3-28.6-43.3-28.6c-1.5-1-3.5-1-5,0.1
		c0,0-38.7,27.6-39.9,28.5c-2.1,1.6-2.8,3.3-2.9,4.6v63.4c0,3.7,4.1,5.9,7.2,3.8l24.8-17.2h56.6c3,0,5.4-2.4,5.4-5.4V37.5
		C156.8,35.8,156.1,34.3,154.9,33.3z M147.5,78H91.8l-13.2,9.1L72,91.8V38.9l7.2-5.2l2.4-1.7l26.7-19.3l29,19.3l10.3,6.9L147.5,78
		L147.5,78z"/>
</g>
<g>
	<path class="st0" d="M198,85.5c-0.8-0.8-1.2-1.8-1.2-3.1V27.6h-19.4c-1.1,0-2.1-0.4-2.8-1.1c-0.8-0.8-1.1-1.7-1.1-2.9
		c0-1.1,0.4-2.1,1.1-2.9c0.8-0.8,1.7-1.2,2.8-1.2h47.3c1.1,0,2.1,0.4,2.9,1.2c0.8,0.8,1.2,1.8,1.2,2.9c0,1.1-0.4,2.1-1.2,2.9
		c-0.8,0.8-1.8,1.1-2.9,1.1h-19.3v54.8c0,1.2-0.4,2.2-1.3,3.1c-0.9,0.8-1.9,1.2-3.1,1.2C199.9,86.8,198.8,86.4,198,85.5z"/>
	<path class="st0" d="M235.2,85.5c-0.8-0.8-1.2-1.8-1.2-3.1V20.4c0-1.2,0.4-2.2,1.2-3.1c0.8-0.9,1.8-1.3,3-1.3s2.2,0.4,3.1,1.3
		c0.9,0.9,1.3,1.9,1.3,3.1v25c2.4-2.7,5-4.8,7.8-6.4c2.8-1.6,6.1-2.4,9.9-2.4c3.5,0,6.5,0.8,9.1,2.5c2.6,1.7,4.5,3.9,5.9,6.8
		c1.4,2.9,2,6,2,9.5v27.2c0,1.2-0.4,2.2-1.3,3.1c-0.9,0.8-1.9,1.2-3.1,1.2s-2.2-0.4-3-1.2s-1.2-1.8-1.2-3.1V56.3
		c0-7.8-3.5-11.7-10.4-11.7c-3.2,0-6,0.8-8.5,2.5c-2.5,1.7-4.9,3.9-7.1,6.7v28.7c0,1.2-0.4,2.2-1.3,3.1c-0.9,0.8-1.9,1.2-3.1,1.2
		C237.1,86.8,236.1,86.4,235.2,85.5z"/>
	<path class="st0" d="M292.4,80.6c-4.3-4.4-6.5-10.7-6.5-18.7c0-4.5,0.8-8.7,2.5-12.5c1.6-3.8,4.2-6.9,7.6-9.3
		c3.4-2.4,7.6-3.5,12.6-3.5c4.7,0,8.7,1.1,12.2,3.3c3.4,2.2,6,5.1,7.8,8.8c1.8,3.7,2.7,7.7,2.7,12c0,1.2-0.4,2.2-1.2,3.1
		c-0.8,0.8-1.9,1.2-3.2,1.2h-32.2c0.5,4.5,2.2,7.9,4.9,10.4c2.8,2.5,6.7,3.7,11.7,3.7c2.7,0,5-0.3,7-0.8c2-0.5,3.9-1.2,5.8-2.2
		c0.5-0.3,1.1-0.4,1.7-0.4c1,0,1.9,0.4,2.7,1.1c0.8,0.7,1.1,1.6,1.1,2.7c0,1.4-0.8,2.6-2.5,3.5c-2.5,1.4-4.9,2.5-7.3,3.2
		c-2.4,0.7-5.5,1.1-9.3,1.1C302.8,87.3,296.8,85,292.4,80.6z M322.7,57.9c-0.2-3.1-1-5.7-2.4-7.8c-1.4-2.1-3.2-3.7-5.3-4.6
		c-2.1-1-4.2-1.5-6.4-1.5c-2.2,0-4.3,0.5-6.4,1.5s-3.8,2.5-5.2,4.6c-1.4,2.1-2.2,4.7-2.4,7.8H322.7z"/>
	<path class="st0" d="M341.6,85.5c-0.8-0.8-1.2-1.8-1.2-3.1V25.4c0-1.7,0.6-3.2,1.8-4.5c1.2-1.2,2.7-1.9,4.4-1.9h1.2
		c2,0,3.8,1,5.2,2.9l36.6,53.2V23.4c0-1.2,0.4-2.2,1.2-3.1c0.8-0.9,1.8-1.3,3-1.3s2.2,0.4,3.1,1.3c0.9,0.9,1.3,1.9,1.3,3.1v57.1
		c0,1.7-0.6,3.2-1.9,4.4c-1.2,1.2-2.7,1.8-4.4,1.8h-1.1c-1,0-2-0.2-2.8-0.7c-0.9-0.5-1.6-1.1-2.2-1.9L349,30.7v51.8
		c0,1.2-0.4,2.2-1.3,3.1c-0.9,0.8-1.9,1.2-3.1,1.2C343.4,86.8,342.4,86.4,341.6,85.5z"/>
	<path class="st0" d="M414.2,80.6c-4.3-4.4-6.5-10.7-6.5-18.7c0-4.5,0.8-8.7,2.5-12.5c1.6-3.8,4.2-6.9,7.6-9.3
		c3.4-2.4,7.6-3.5,12.6-3.5c4.7,0,8.7,1.1,12.2,3.3c3.4,2.2,6,5.1,7.8,8.8c1.8,3.7,2.7,7.7,2.7,12c0,1.2-0.4,2.2-1.2,3.1
		s-1.9,1.2-3.2,1.2h-32.2c0.5,4.5,2.2,7.9,4.9,10.4c2.8,2.5,6.7,3.7,11.7,3.7c2.7,0,5-0.3,7-0.8c2-0.5,3.9-1.2,5.8-2.2
		c0.5-0.3,1.1-0.4,1.7-0.4c1,0,1.9,0.4,2.7,1.1c0.8,0.7,1.1,1.6,1.1,2.7c0,1.4-0.8,2.6-2.5,3.5c-2.5,1.4-4.9,2.5-7.3,3.2
		c-2.4,0.7-5.5,1.1-9.3,1.1C424.5,87.3,418.5,85,414.2,80.6z M444.4,57.9c-0.2-3.1-1-5.7-2.4-7.8c-1.4-2.1-3.2-3.7-5.3-4.6
		c-2.1-1-4.2-1.5-6.4-1.5c-2.2,0-4.3,0.5-6.4,1.5c-2.1,1-3.8,2.5-5.2,4.6c-1.4,2.1-2.2,4.7-2.4,7.8H444.4z"/>
	<path class="st0" d="M459.3,85.6c-0.7-0.8-1.1-1.9-1.1-3.2c0-1,0.3-1.8,0.9-2.7l14.7-17.5l-14.7-18.1c-0.7-0.9-1-1.8-1-2.8
		c0-1.3,0.4-2.3,1.2-3.1s1.8-1.2,3-1.2c1.5,0,2.7,0.5,3.4,1.6l13.3,16.6l13.2-16.6c0.8-1.1,1.9-1.6,3.3-1.6c1.3,0,2.3,0.4,3.1,1.2
		s1.2,1.8,1.2,2.9c0,1-0.3,1.9-1,2.7l-15,17.8l14.8,18c0.7,0.8,1,1.7,1,2.8c0,1.2-0.4,2.2-1.1,3.1c-0.8,0.9-1.8,1.3-3.2,1.3
		c-1.4,0-2.5-0.6-3.3-1.7l-13.5-16.3L466,84.9c-0.9,1.3-2.2,1.9-3.7,1.9C461,86.8,460,86.4,459.3,85.6z"/>
	<path class="st0" d="M512.1,74.6V45h-6.7c-0.5,0-0.9-0.2-1.3-0.5c-0.3-0.4-0.5-0.8-0.5-1.3c0-0.6,0.3-1.2,0.9-1.6l12.9-12.7
		c0.6-0.6,1.1-0.9,1.6-0.9s0.9,0.2,1.3,0.6c0.3,0.4,0.5,0.8,0.5,1.3v7.7h10.7c1.1,0,2,0.4,2.7,1.1c0.7,0.7,1,1.6,1,2.7
		c0,1-0.3,1.9-1,2.6c-0.7,0.7-1.6,1.1-2.7,1.1h-10.7v28.9c0,2.5,0.6,4.1,1.8,4.7c1.2,0.7,2.6,1,4.4,1c1.3,0,2.5-0.2,3.8-0.6
		c0.3-0.1,0.5-0.1,0.8-0.2c0.3-0.1,0.7-0.1,1.1-0.1c0.9,0,1.7,0.3,2.4,1c0.7,0.7,1,1.5,1,2.4c0,1.5-0.7,2.6-2.2,3.3
		c-2.5,1.2-5.1,1.7-7.9,1.7C516.7,87.3,512.1,83,512.1,74.6z"/>
	<path class="st0" d="M545.5,85.1c-0.8-0.8-1.2-1.8-1.2-3.1V23.9c0-1.2,0.4-2.2,1.2-3.1c0.8-0.9,1.8-1.3,3-1.3H571
		c6.8,0,12,1.6,15.7,4.7c3.7,3.1,5.6,7.3,5.6,12.6c0,3.7-0.9,6.8-2.6,9.2s-4,4.3-6.7,5.5c3.8,1.2,6.9,3.2,9.4,5.8
		c2.4,2.7,3.7,6.1,3.7,10.1c0,5.9-2,10.5-5.9,13.8c-3.9,3.3-10.1,5-18.5,5h-23C547.4,86.3,546.4,85.9,545.5,85.1z M568.7,48.4
		c5.6,0,9.6-1,11.9-2.9c2.3-1.9,3.4-4.6,3.4-8c0-3-1.2-5.4-3.7-7.2c-2.4-1.8-5.8-2.7-10-2.7h-17.4v20.8H568.7z M570.7,78.2
		c6.1,0,10.5-1,13.1-2.9s3.8-4.6,3.8-8.1c0-7.3-5.6-10.9-16.8-10.9h-17.8v21.9C552.9,78.2,570.7,78.2,570.7,78.2z"/>
	<path class="st0" d="M605.4,26.1c-1-1-1.4-2.1-1.4-3.4v-0.4c0-1.3,0.5-2.5,1.4-3.4c1-1,2.1-1.4,3.4-1.4h0.6c1.3,0,2.5,0.5,3.4,1.4
		c0.9,1,1.4,2.1,1.4,3.4v0.4c0,1.3-0.5,2.5-1.4,3.4c-1,1-2.1,1.4-3.4,1.4h-0.6C607.4,27.6,606.3,27.1,605.4,26.1z M605.9,85.5
		c-0.8-0.8-1.2-1.8-1.2-3.1v-41c0-1.2,0.4-2.2,1.2-3.1c0.8-0.9,1.8-1.3,3-1.3c1.3,0,2.3,0.4,3.1,1.2s1.2,1.9,1.2,3.2v41
		c0,1.2-0.4,2.2-1.3,3.1s-1.9,1.2-3.1,1.2S606.8,86.4,605.9,85.5z"/>
	<path class="st0" d="M634.3,84.2c-3.5-2-6.4-4.9-8.5-8.8s-3.3-8.4-3.3-13.5c0-5.2,1.1-9.7,3.3-13.5s5-6.8,8.5-8.8
		c3.5-2,7.2-3,11.2-3c6.2,0,11.6,2.4,16.2,7.3V20.4c0-1.3,0.4-2.3,1.3-3.2c0.9-0.8,1.9-1.2,3.1-1.2s2.2,0.4,3,1.3
		c0.8,0.9,1.2,1.9,1.2,3.1v62.1c0,1.2-0.4,2.2-1.2,3.1c-0.8,0.8-1.8,1.2-3,1.2c-1.2,0-2.2-0.4-3.1-1.2s-1.3-1.8-1.3-3.1V80
		c-4.6,4.8-10,7.3-16.2,7.3C641.5,87.3,637.8,86.3,634.3,84.2z M654.9,77.2c2.6-1.3,4.8-3,6.8-5.2V51.9c-2-2.2-4.2-3.9-6.8-5.2
		c-2.6-1.3-5.3-2-8.2-2c-4.7,0-8.5,1.5-11.3,4.5c-2.8,3-4.3,7.2-4.3,12.7c0,5.5,1.4,9.7,4.3,12.7c2.8,3,6.6,4.5,11.3,4.5
		C649.6,79.1,652.3,78.5,654.9,77.2z"/>
</g>
</svg>
